<svg id="Layer_1" data-name="Layer 1" xmlns="http://www.w3.org/2000/svg" viewBox="0 0 466 88.54"><title>logo</title><polygon points="15.77 1.15 0 1.15 0 10.34 15.77 10.34 15.77 54.74 24.96 54.74 24.96 10.34 40.65 10.34 40.65 1.15 24.96 1.15 15.77 1.15"/><polygon points="76.32 23.35 54.05 23.35 54.05 1.15 44.86 1.15 44.86 54.74 54.05 54.74 54.05 32.53 76.32 32.53 76.32 54.74 85.51 54.74 85.51 1.15 76.32 1.15 76.32 23.35"/><polygon points="113.15 1.15 88.96 54.74 99.07 54.74 103.2 45.55 125.4 45.55 121.27 36.37 107.33 36.37 118.2 12.32 129.08 36.37 133.21 45.55 137.34 54.74 147.45 54.74 123.26 1.15 113.15 1.15"/><polygon points="182.35 37.74 160.84 1.07 150.89 1.07 150.89 54.66 160.08 54.66 160.08 17.99 181.59 54.66 191.54 54.66 191.54 1.07 182.35 1.07 182.35 37.74"/><polygon points="228.36 23.35 206.09 23.35 206.09 1.15 196.9 1.15 196.9 54.74 206.09 54.74 206.09 32.53 228.36 32.53 228.36 54.74 237.55 54.74 237.55 1.15 228.36 1.15 228.36 23.35"/><path d="M304.2,223.75a16.74,16.74,0,0,1-2,.11,18.66,18.66,0,0,1-7.12-1.38A18.72,18.72,0,0,1,285,212.34a18.87,18.87,0,0,1-1.38-7.16,18.59,18.59,0,0,1,1.38-7.12,18.27,18.27,0,0,1,4.06-6,18.9,18.9,0,0,1,6-4.09,18.12,18.12,0,0,1,7.12-1.41,18.35,18.35,0,0,1,7.2,1.41,19,19,0,0,1,6,4.09,18.46,18.46,0,0,1,4.06,6,18.7,18.7,0,0,1,1.38,7.12,18.41,18.41,0,0,1-2.3,9.11L302.25,198v13l27.87,27.87v-13l-4.83-4.9a27.66,27.66,0,0,0,4.83-15.77,27.18,27.18,0,0,0-2.19-10.83,28,28,0,0,0-14.81-14.85,28.1,28.1,0,0,0-21.71,0,27.56,27.56,0,0,0-8.84,6,28.31,28.31,0,0,0-5.94,8.88,28,28,0,0,0,0,21.67,28.31,28.31,0,0,0,5.94,8.88,27.56,27.56,0,0,0,8.84,6,27.26,27.26,0,0,0,10.83,2.18,26.72,26.72,0,0,0,5.78-.62,29.82,29.82,0,0,0,5.33-1.68l-7.28-7.27C305.46,223.58,304.84,223.67,304.2,223.75Z" transform="translate(-17 -177.32)"/><path d="M380.87,210.62V178.46h-9.19v32.15a13.08,13.08,0,0,1-3.9,9.42,12.83,12.83,0,0,1-9.42,3.9A13.27,13.27,0,0,1,345,210.62V178.46h-9.18v32.15a22,22,0,0,0,1.76,8.77,22.55,22.55,0,0,0,12,12,22.67,22.67,0,0,0,17.53,0,22.55,22.55,0,0,0,12-12A21.88,21.88,0,0,0,380.87,210.62Z" transform="translate(-17 -177.32)"/><polygon points="387.61 1.15 363.41 54.74 373.52 54.74 377.65 45.55 399.85 45.55 395.72 36.37 381.79 36.37 392.66 12.32 403.53 36.37 407.66 45.55 411.8 54.74 421.9 54.74 397.71 1.15 387.61 1.15"/><polygon points="456.81 1.07 456.81 37.74 435.3 1.07 425.35 1.07 425.35 54.66 434.54 54.66 434.54 17.99 456.05 54.66 466 54.66 466 1.07 456.81 1.07"/><path d="M40.76,259.11a6.74,6.74,0,0,0-.82-.48l-.77-.35a5.45,5.45,0,0,0-.61-.22l-.35-.11-.22-.06-.72-.2a3.88,3.88,0,0,1-.74-.3,2.24,2.24,0,0,1-.67-.5,1.19,1.19,0,0,1-.33-.85,1.5,1.5,0,0,1,.82-1.32,2.83,2.83,0,0,1,.65-.24,3,3,0,0,1,.74-.09,3.75,3.75,0,0,1,1.63.37,4,4,0,0,1,1,.76l1.58-1.59-.34-.29a4.16,4.16,0,0,0-.47-.32,8.33,8.33,0,0,0-1.45-.63,6.9,6.9,0,0,0-2.24-.32,5.6,5.6,0,0,0-1.47.2,3.86,3.86,0,0,0-1.36.68,3.54,3.54,0,0,0-1,1.22,4.06,4.06,0,0,0-.38,1.84,3.29,3.29,0,0,0,1.69,2.78,7.27,7.27,0,0,0,1.46.76q.73.28,1.12.39l.11,0a.29.29,0,0,0,.13,0l.17,0,.67.2a3.57,3.57,0,0,1,.7.3,2,2,0,0,1,.67.48,1.22,1.22,0,0,1,.33.83,1.45,1.45,0,0,1-.63,1.22,2.49,2.49,0,0,1-.7.32,3,3,0,0,1-.88.12,5.12,5.12,0,0,1-.67-.06,3.68,3.68,0,0,1-.87-.24,4.4,4.4,0,0,1-1.37-.85l-1.54,1.54a7.84,7.84,0,0,0,2,1.12,7.21,7.21,0,0,0,2.74.49,5.16,5.16,0,0,0,1.74-.28,3.78,3.78,0,0,0,1.33-.79,3.45,3.45,0,0,0,.84-1.24,4.34,4.34,0,0,0,.3-1.64A3.37,3.37,0,0,0,40.76,259.11Z" transform="translate(-17 -177.32)"/><polygon points="70.23 81.61 66.17 75.31 63.75 75.31 63.75 88.28 65.97 88.28 65.97 79.09 70.23 85.71 74.52 79.09 74.52 88.28 76.74 88.28 76.74 75.31 74.31 75.31 70.23 81.61"/><polygon points="120.5 75.33 114.65 88.3 117.09 88.3 118.09 86.08 123.47 86.08 122.47 83.85 119.09 83.85 121.73 78.03 124.36 83.85 125.36 86.08 126.36 88.3 128.81 88.3 122.95 75.33 120.5 75.33"/><path d="M192.49,259.82a4.7,4.7,0,0,0,.54-1.18,4.58,4.58,0,0,0,.2-1.34,4.45,4.45,0,0,0-.37-1.81,4.75,4.75,0,0,0-2.48-2.47,4.43,4.43,0,0,0-1.81-.37h-4.86v13h2.22V254.87h2.63a2.35,2.35,0,0,1,1.72.72,2.41,2.41,0,0,1,.52,2.63,2.62,2.62,0,0,1-.52.8,2.35,2.35,0,0,1-1.72.72h-1L186.7,262h1.52l2.35,3.65h2.65l-2.65-4.12a4.54,4.54,0,0,0,1.08-.71A4.62,4.62,0,0,0,192.49,259.82Z" transform="translate(-17 -177.32)"/><polygon points="217.47 75.33 213.65 75.33 213.65 77.55 217.47 77.55 217.47 88.3 219.69 88.3 219.69 77.55 223.49 77.55 223.49 75.33 219.69 75.33 217.47 75.33"/><path d="M286.72,254a4.75,4.75,0,0,0-1.48-1,4.51,4.51,0,0,0-1.82-.37h-4.84v13h2.22V254.87h2.61a2.35,2.35,0,0,1,1.72.72,2.26,2.26,0,0,1,.72,1.71,2.47,2.47,0,0,1-2.45,2.45h-.94l-.91,2.22h1.85a4.51,4.51,0,0,0,1.82-.37,4.7,4.7,0,0,0,2.48-2.48,4.51,4.51,0,0,0,.37-1.82,4.45,4.45,0,0,0-.37-1.81A4.8,4.8,0,0,0,286.72,254Z" transform="translate(-17 -177.32)"/><polygon points="316.9 80.7 311.51 80.7 311.51 75.33 309.28 75.33 309.28 88.3 311.51 88.3 311.51 82.93 316.9 82.93 316.9 88.3 319.12 88.3 319.12 75.33 316.9 75.33 316.9 80.7"/><path d="M385.83,254.34a6.81,6.81,0,0,0-2.15-1.45,6.78,6.78,0,0,0-5.25,0,6.75,6.75,0,0,0-3.6,3.6,6.78,6.78,0,0,0,0,5.25,6.74,6.74,0,0,0,3.6,3.6,6.77,6.77,0,0,0,5.25,0,6.73,6.73,0,0,0,3.59-3.6,6.78,6.78,0,0,0,0-5.25A6.77,6.77,0,0,0,385.83,254.34Zm-.58,6.51a4.52,4.52,0,0,1-2.46,2.46,4.57,4.57,0,0,1-1.73.33,4.52,4.52,0,0,1-1.72-.33,4.41,4.41,0,0,1-1.46-1,4.52,4.52,0,0,1-1-1.47,4.47,4.47,0,0,1-.34-1.73,4.4,4.4,0,0,1,.34-1.72,4.69,4.69,0,0,1,2.46-2.46,4.41,4.41,0,0,1,1.72-.34,4.47,4.47,0,0,1,1.73.34,4.51,4.51,0,0,1,1.47,1,4.43,4.43,0,0,1,1,1.46,4.51,4.51,0,0,1,.33,1.72A4.57,4.57,0,0,1,385.25,260.85Z" transform="translate(-17 -177.32)"/><polygon points="416.61 84.19 411.4 75.31 408.99 75.31 408.99 88.28 411.21 88.28 411.21 79.41 416.42 88.28 418.83 88.28 418.83 75.31 416.61 75.31 416.61 84.19"/><polygon points="457.2 88.3 465.93 88.3 465.93 86.08 459.43 86.08 459.43 82.93 464.82 82.93 464.27 80.7 459.43 80.7 459.43 77.55 465.93 77.55 465.93 75.33 457.2 75.33 457.2 88.3"/></svg>