<svg xmlns:dc="http://purl.org/dc/elements/1.1/" xmlns:cc="http://creativecommons.org/ns#" xmlns:rdf="http://www.w3.org/1999/02/22-rdf-syntax-ns#" xmlns:svg="http://www.w3.org/2000/svg" xmlns="http://www.w3.org/2000/svg" xmlns:sodipodi="http://sodipodi.sourceforge.net/DTD/sodipodi-0.dtd" xmlns:inkscape="http://www.inkscape.org/namespaces/inkscape" version="1.1" x="0px" y="0px" viewBox="0 0 100 100"><g transform="translate(0,-952.36218)"><path d="m 29.341363,984.96468 a 2.0459723,2.0459723 0 0 0 0.381927,4.07399 l 6.874821,0 0.976069,3.60731 a 2.0371917,2.0371917 0 0 0 0.04239,0.21107 2.0371917,2.0371917 0 0 0 0.08496,0.38172 2.0371917,2.0371917 0 0 0 0.08496,0.25489 l 4.371024,16.63524 0.381946,1.5277 1.570174,0 21.26105,0 1.570193,0 0.381945,-1.5277 0.594088,-2.2915 -22.067352,0 c -0.27058,-0.9054 -0.416486,-1.3541 -0.721445,-2.6734 l 0.04239,0 -3.904222,-14.59848 -0.04239,0 -1.060926,-4.07416 -0.08496,-0.42429 -0.297071,-1.10328 -1.570174,0 -8.487442,0 a 2.0371917,2.0371917 0 0 0 -0.212303,0 2.0397488,2.0397488 0 0 0 -0.16975,0 z m 14.72571,5.60156 3.90424,14.59846 20.666927,0 3.182795,-12.00965 0.678998,-2.58881 -2.6311,0 -25.80186,0 z m 4.413489,23.04366 c -1.704651,0 -3.055492,1.3933 -3.055492,3.0979 0,1.7047 1.350841,3.0555 3.055492,3.0555 1.704632,0 3.097902,-1.3508 3.097902,-3.0555 0,-1.7046 -1.39327,-3.0979 -3.097902,-3.0979 z m 11.755111,0 c -1.704632,0 -3.09792,1.3933 -3.09792,3.0979 0,1.7047 1.393288,3.0555 3.09792,3.0555 1.704633,0 3.097938,-1.3508 3.097938,-3.0555 0,-1.7046 -1.393305,-3.0979 -3.097938,-3.0979 z" style="text-indent:0;text-transform:none;direction:ltr;block-progression:tb;baseline-shift:baseline;color:#000000;enable-background:accumulate;" fill="#4d4d4d" fill-opacity="1" stroke="none" marker="none" visibility="visible" display="inline" overflow="visible"/></g></svg>