<svg xmlns="http://www.w3.org/2000/svg" xmlns:xlink="http://www.w3.org/1999/xlink" version="1.1" x="0px" y="0px" viewBox="0 0 100 100" enable-background="new 0 0 100 100" xml:space="preserve"><path d="M76.261,22.302h-16.01l1.648-0.443c0.002,0,0.003,0,0.003,0c0.001,0,0.003,0,0.005,0c1.376-0.375,2.641-1.106,3.654-2.123  c3.211-3.211,3.211-8.437,0-11.646s-8.437-3.211-11.646,0c-1.013,1.015-1.746,2.272-2.119,3.646  c-0.002,0.004-0.006,0.011-0.006,0.016l-1.792,6.688l-1.793-6.688v-0.002c-0.001-0.001,0-0.003-0.002-0.004  c-0.374-1.377-1.106-2.643-2.122-3.655c-1.557-1.558-3.623-2.413-5.822-2.413c-2.201,0.004-4.269,0.855-5.824,2.413  c-3.211,3.211-3.211,8.438,0,11.646c1.015,1.015,2.274,1.746,3.647,2.121c0.005,0,0.009,0.002,0.013,0.004l1.646,0.441H23.735  c-0.745,0-1.35,0.604-1.35,1.35v11.556c0,0.745,0.604,1.353,1.35,1.353h1.808v56.412c0,0.746,0.604,1.352,1.351,1.352h46.211  c0.744,0,1.352-0.605,1.352-1.352V36.56h1.809c0.744,0,1.35-0.605,1.35-1.353V23.651C77.61,22.905,77.007,22.302,76.261,22.302z   M63.653,9.997c2.158,2.158,2.158,5.67,0,7.828c-0.682,0.681-1.527,1.174-2.45,1.426c0,0,0,0-0.001,0l-9.295,2.49l2.486-9.277  c0-0.004,0.002-0.008,0.004-0.012c0.25-0.924,0.744-1.771,1.427-2.455C57.981,7.839,61.494,7.839,63.653,9.997z M36.345,9.997  c1.045-1.045,2.437-1.621,3.914-1.621c1.479,0,2.869,0.576,3.914,1.621c0.68,0.682,1.174,1.529,1.426,2.449v0.002l2.49,9.294  l-9.281-2.486c-0.004-0.001-0.006-0.003-0.008-0.003c-0.925-0.251-1.771-0.744-2.455-1.427  C34.185,15.667,34.185,12.155,36.345,9.997z M25.087,25.001h23.561v8.854H26.894h-1.807V25.001z M28.243,36.556h20.404v55.063  H28.243V36.556z M71.755,91.618H51.349V36.556h20.406V91.618z M74.91,33.856h-1.808H51.349v-8.854H74.91V33.856z"/></svg>