<svg xmlns="http://www.w3.org/2000/svg" xmlns:xlink="http://www.w3.org/1999/xlink" version="1.1" x="0px" y="0px" viewBox="0 0 100 100" style="enable-background:new 0 0 100 100;" xml:space="preserve"><g><path d="M32.9,5h34.5c1.6,0.1,3.2,0.8,4.3,2c1,1.1,1.6,2.5,1.6,3.9v78c-0.1,1.6-0.8,3.1-1.9,4.2c-1.1,1.1-2.6,1.7-4.1,1.8H32.8   c-1.7-0.1-3.3-0.9-4.4-2.1c-1-1.1-1.5-2.5-1.6-3.9V11c0.1-1.5,0.7-3.1,1.8-4.1C29.9,5.7,31.4,5.1,32.9,5 M30.8,9   c-0.6,0.6-0.9,1.5-0.9,2.4c0,2.1,0,4.2,0,6.3c13.6,0,27.1,0,40.7,0c0-2.2,0-4.3,0-6.5c-0.1-1.7-1.6-3.2-3.3-3.2   c-11.3,0-22.6,0-34,0C32.4,7.9,31.4,8.3,30.8,9 M29.9,20.5c0,19,0,38.1,0,57.1c13.6,0,27.1,0,40.7,0c0-19,0-38.1,0-57.1   C56.9,20.5,43.4,20.5,29.9,20.5 M29.9,80.6c0,2.8,0,5.6,0,8.4c0.1,1.7,1.6,3.2,3.3,3.2c11.4,0,22.7,0,34.1,0c1.7,0,3.2-1.5,3.3-3.2   c0-2.8,0-5.6,0-8.4C56.9,80.6,43.4,80.6,29.9,80.6z"/><path d="M44.9,11.8c0.2-0.1,0.3-0.1,0.5-0.1c3.2,0,6.4,0,9.6,0c0.5,0,1,0.4,1,1c0,0.5-0.4,1-1,1c-3.2,0-6.4,0-9.7,0   c-0.5,0-0.9-0.4-1-0.9C44.2,12.4,44.5,12,44.9,11.8z"/><path d="M58.8,42c0.4-0.4,1-0.4,1.4,0s0.4,1,0,1.4c-4.4,4.5-8.8,9-13.3,13.5c-0.4,0.4-1,0.4-1.4,0c-2-2.1-4-4.1-6.1-6.2   c-0.4-0.4-0.4-1.1,0.1-1.4c0.4-0.4,1-0.3,1.4,0.1c1.8,1.8,3.5,3.6,5.3,5.4C50.4,50.5,54.5,46.2,58.8,42z"/><path d="M49.2,82.4c1-0.2,2,0,2.8,0.5c0.9,0.5,1.5,1.3,1.8,2.3s0.2,2.1-0.2,3c-0.5,1-1.3,1.7-2.3,2c-1,0.4-2.2,0.3-3.2-0.3   c-0.9-0.5-1.7-1.4-2-2.4c-0.3-1.1-0.2-2.3,0.4-3.3C47.1,83.2,48.1,82.6,49.2,82.4 M49.4,84.4c-0.7,0.2-1.3,0.8-1.5,1.6   c-0.2,0.8,0.1,1.6,0.8,2.1c0.6,0.5,1.4,0.6,2.1,0.3c0.7-0.3,1.2-0.9,1.3-1.7c0.1-0.7-0.2-1.4-0.7-1.9C50.9,84.2,50,84.1,49.4,84.4z   "/></g></svg>