<svg xmlns="http://www.w3.org/2000/svg" xmlns:xlink="http://www.w3.org/1999/xlink" version="1.1" x="0px" y="0px" viewBox="0 0 100 100" enable-background="new 0 0 100 100" xml:space="preserve"><path fill="#ef3e43" d="M59.305,47.5H52.5v-6.805c0-1.381-1.119-2.5-2.5-2.5s-2.5,1.119-2.5,2.5V47.5h-6.805c-1.381,0-2.5,1.119-2.5,2.5  s1.119,2.5,2.5,2.5H47.5v6.805c0,1.381,1.119,2.5,2.5,2.5s2.5-1.119,2.5-2.5V52.5h6.805c1.381,0,2.5-1.119,2.5-2.5  S60.686,47.5,59.305,47.5z"/><path fill="#ef3e43" d="M50,23c-14.888,0-27,12.112-27,27s12.112,27,27,27s27-12.112,27-27S64.888,23,50,23z M50,73c-12.682,0-23-10.318-23-23  s10.318-23,23-23s23,10.318,23,23S62.682,73,50,73z"/></svg>