<svg xmlns="http://www.w3.org/2000/svg" xmlns:xlink="http://www.w3.org/1999/xlink" version="1.0" x="0px" y="0px" viewBox="0 0 100 100" enable-background="new 0 0 100 100" xml:space="preserve"><path fill="none" stroke="#000000" stroke-linecap="round" stroke-linejoin="round" stroke-miterlimit="10" d="M67.644,45.292H66.47  v-2.351c0-9.095-7.373-16.472-16.471-16.472c-9.095,0-16.468,7.376-16.468,16.472v2.351h-1.177c-2.59,0-4.708,2.117-4.708,4.708  v4.705c0,2.587,2.118,4.704,4.708,4.704h2.99c2.727,8.379,8.258,14.121,14.656,14.121c6.397,0,11.932-5.746,14.659-14.121h2.986  c2.591,0,4.708-2.117,4.708-4.704V50C72.352,47.409,70.234,45.292,67.644,45.292z"/><path fill="none" stroke="#000000" stroke-linecap="round" stroke-linejoin="round" stroke-miterlimit="10" d="M90,50  c0,22.091-17.911,40.002-39.999,40.002C27.908,90.002,10,72.091,10,50C10,27.91,27.908,9.999,50.001,9.999  C72.089,9.999,90,27.91,90,50z"/><path fill="none" stroke="#000000" stroke-linecap="round" stroke-linejoin="round" stroke-miterlimit="10" d="M50.001,90.002  c7.513,0,14.542-2.079,20.547-5.681l-10.311-4.273c-0.863-0.357-1.641-0.879-2.289-1.527c-1.278-1.277-2.069-3.045-2.069-4.993  v-1.709c-1.825,1.099-3.807,1.712-5.881,1.712c-2.075,0-4.057-0.613-5.882-1.712v1.709c0,1.948-0.788,3.716-2.065,4.993  c-0.652,0.648-1.43,1.17-2.292,1.527l-10.311,4.27C35.456,87.923,42.486,90.002,50.001,90.002z"/><path fill="none" stroke="#000000" stroke-linecap="round" stroke-linejoin="round" stroke-miterlimit="10" d="M66.47,45.295  c0,2.143-0.584,4.15-1.585,5.878c-2.037-3.512-5.827-5.882-10.179-5.882h-0.003c-3.823,0-7.282-1.524-9.825-3.991  c-2.643-2.565-4.29-6.151-4.29-10.126v-1.738v1.738c0,3.975,1.647,7.561,4.29,10.126c2.542,2.467,6.001,3.991,9.825,3.991h0.003  c4.352,0,8.142,2.37,10.179,5.882C65.886,49.445,66.47,47.438,66.47,45.295z"/><path fill="none" stroke="#000000" stroke-linecap="round" stroke-linejoin="round" stroke-miterlimit="10" d="M44.878,41.301  c-1.271,4.708-5.379,8.245-10.389,8.65c-0.616-1.43-0.959-3.002-0.959-4.656c0,1.653,0.344,3.226,0.959,4.656  C39.5,49.546,43.607,46.009,44.878,41.301z"/><path fill="none" stroke="#000000" stroke-linecap="round" stroke-linejoin="round" stroke-miterlimit="10" d="M32.353,45.292  v14.117V45.292z"/><circle fill="none" stroke="#000000" stroke-linecap="round" stroke-linejoin="round" stroke-miterlimit="10" cx="49.999" cy="65.295" r="2.941"/><path fill="none" stroke="#000000" stroke-linecap="round" stroke-linejoin="round" stroke-miterlimit="10" d="M52.939,65.295  h12.354c1.294,0,2.354-1.061,2.354-2.354V45.292V62.94c0,1.294-1.06,2.354-2.354,2.354H52.939z"/></svg>