<svg xmlns="http://www.w3.org/2000/svg" xmlns:xlink="http://www.w3.org/1999/xlink" version="1.1" x="0px" y="0px" viewBox="0 0 226.8 226.8" enable-background="new 0 0 226.8 226.8" xml:space="preserve"><path d="M90.3,105.6c0,4.6-3.7,8.3-8.3,8.3c-4.6,0-8.3-3.7-8.3-8.3c0-4.6,3.7-8.3,8.3-8.3C86.6,97.3,90.3,101,90.3,105.6z   M113.4,97.3c-4.6,0-8.3,3.7-8.3,8.3c0,4.6,3.7,8.3,8.3,8.3s8.3-3.7,8.3-8.3C121.7,101,118,97.3,113.4,97.3z M144.8,97.3  c-4.6,0-8.3,3.7-8.3,8.3c0,4.6,3.7,8.3,8.3,8.3c4.6,0,8.3-3.7,8.3-8.3C153.1,101,149.4,97.3,144.8,97.3z M172.8,177.3L144.2,155h-96  c-8.5,0-15.3-6.9-15.3-15.3V68.2c0-8.5,6.9-15.3,15.3-15.3h130.5c8.5,0,15.3,6.9,15.3,15.3v71.4c0,8.5-6.9,15.3-15.3,15.3h-5.8  L172.8,177.3z M48.2,60.9c-4,0-7.3,3.3-7.3,7.3v71.4c0,4,3.3,7.3,7.3,7.3h100.4l16.1,12.2l0-12.2l13.9,0c4,0,7.3-3.3,7.3-7.3V68.2  c0-4-3.3-7.3-7.3-7.3H48.2z"/></svg>