<svg xmlns:dc="http://purl.org/dc/elements/1.1/" xmlns:cc="http://creativecommons.org/ns#" xmlns:rdf="http://www.w3.org/1999/02/22-rdf-syntax-ns#" xmlns:svg="http://www.w3.org/2000/svg" xmlns="http://www.w3.org/2000/svg" xmlns:sodipodi="http://sodipodi.sourceforge.net/DTD/sodipodi-0.dtd" xmlns:inkscape="http://www.inkscape.org/namespaces/inkscape" version="1.1" x="0px" y="0px" viewBox="0 0 100 125"><g transform="translate(0,-952.36218)"><path style="text-indent:0;text-transform:none;direction:ltr;block-progression:tb;baseline-shift:baseline;color:#fff;enable-background:accumulate;" d="m 9.9999995,964.36224 c -1.1046,0 -2,0.89543 -2,2 0,1.10457 0.8954,2 2,2 l 10.3750005,0 10.5312,49.74996 c 0.255499,1.2291 1.0765,2.263 2.0938,2.25 l 50,0 c 1.0566,0.015 2.028499,-0.9432 2.028499,-2 0,-1.0567 -0.9719,-2.0149 -2.028499,-2 l -48.375,0 -10.656201,-50.43746 c -0.1982,-0.88398 -1.0629,-1.57023 -1.9688,-1.5625 z M 30,976.36225 l 2.5938,13 16.4062,0 0,-13 z m 23,0 0,13 16,0 0,-13 z m 20,0 0,13 15.9688,0 3.0312,-13 z m -39.593801,17 L 36,1006.3623 l 13,0 0,-13.00005 z m 19.593801,0 0,13.00005 16,0 0,-13.00005 z m 20,0 0,13.00005 12,0 3.031199,-13.00005 z m -30,32.99995 c -3.8659,0 -7,3.134 -7,7 0,3.866 3.1341,7 7,7 3.865999,0 7,-3.134 7,-7 0,-3.866 -3.134001,-7 -7,-7 z m 30,0 c -3.8659,0 -7,3.134 -7,7 0,3.866 3.1341,7 7,7 3.865999,0 7,-3.134 7,-7 0,-3.866 -3.134001,-7 -7,-7 z" fill="#fff" fill-opacity="1" stroke="none" marker="none" visibility="visible" display="inline" overflow="visible"/></g></svg>