<svg xmlns="http://www.w3.org/2000/svg" xmlns:xlink="http://www.w3.org/1999/xlink" version="1.1" x="0px" y="0px" viewBox="0 0 66 66" style="enable-background:new 0 0 66 66;" xml:space="preserve"><g><path d="M56.4,11.8H9.6c-3.3,0-6,2.7-6,6v30.5c0,3.3,2.7,6,6,6h46.7c3.3,0,6-2.7,6-6V17.8C62.4,14.4,59.7,11.8,56.4,11.8z    M9.6,13.8h46.7c1,0,2,0.4,2.7,1c-0.1,0-0.2,0.1-0.3,0.2L33,34.7L7.3,15c-0.1-0.1-0.2-0.1-0.3-0.2C7.7,14.1,8.6,13.8,9.6,13.8z    M60.4,48.2c0,2.2-1.8,4-4,4H9.6c-2.2,0-4-1.8-4-4V17.8c0-0.5,0.1-0.9,0.2-1.4c0,0.1,0.1,0.1,0.2,0.1l27,20.7l27-20.7   c0.1,0,0.1-0.1,0.2-0.1c0.2,0.4,0.2,0.9,0.2,1.4V48.2z"/></g></svg>