<svg id="Layer_1" data-name="Layer 1" xmlns="http://www.w3.org/2000/svg" xmlns:xlink="http://www.w3.org/1999/xlink" viewBox="0 0 86.56 23.76"><defs><style>.cls-1{fill:url(#linear-gradient);}.cls-2{fill:url(#linear-gradient-2);}.cls-3{fill:url(#linear-gradient-3);}.cls-4{fill:url(#linear-gradient-4);}.cls-5{fill:url(#linear-gradient-5);}.cls-6{fill:url(#linear-gradient-6);}.cls-7{fill:url(#linear-gradient-7);}.cls-8{fill:url(#linear-gradient-8);}.cls-9{fill:url(#linear-gradient-9);}.cls-10{fill:url(#linear-gradient-10);}.cls-11{fill:url(#linear-gradient-11);}.cls-12{fill:url(#linear-gradient-12);}.cls-13{fill:url(#linear-gradient-13);}.cls-14{fill:url(#linear-gradient-14);}.cls-15{fill:url(#linear-gradient-15);}.cls-16{fill:url(#linear-gradient-16);}.cls-17{fill:url(#linear-gradient-17);}.cls-18{fill:url(#linear-gradient-18);}.cls-19{fill:url(#linear-gradient-19);}.cls-20{fill:url(#linear-gradient-20);}</style><linearGradient id="linear-gradient" x1="298.4" y1="326.83" x2="385.07" y2="301.83" gradientUnits="userSpaceOnUse"><stop offset="0" stop-color="blue"/><stop offset="1" stop-color="#ef3e43"/></linearGradient><linearGradient id="linear-gradient-2" x1="3.7" y1="34.09" x2="90.36" y2="9.09" xlink:href="#linear-gradient"/><linearGradient id="linear-gradient-3" x1="299.17" y1="329.5" x2="385.84" y2="304.5" xlink:href="#linear-gradient"/><linearGradient id="linear-gradient-4" x1="299.49" y1="330.61" x2="386.16" y2="305.61" xlink:href="#linear-gradient"/><linearGradient id="linear-gradient-5" x1="4.73" y1="37.66" x2="91.4" y2="12.66" xlink:href="#linear-gradient"/><linearGradient id="linear-gradient-6" x1="300.11" y1="332.76" x2="386.78" y2="307.76" xlink:href="#linear-gradient"/><linearGradient id="linear-gradient-7" x1="5.44" y1="40.13" x2="92.11" y2="15.13" xlink:href="#linear-gradient"/><linearGradient id="linear-gradient-8" x1="300.86" y1="335.36" x2="387.53" y2="310.36" xlink:href="#linear-gradient"/><linearGradient id="linear-gradient-9" x1="6.15" y1="42.59" x2="92.81" y2="17.59" xlink:href="#linear-gradient"/><linearGradient id="linear-gradient-10" x1="6.49" y1="43.78" x2="93.16" y2="18.78" xlink:href="#linear-gradient"/><linearGradient id="linear-gradient-11" x1="0.82" y1="24.13" x2="87.49" y2="-0.87" xlink:href="#linear-gradient"/><linearGradient id="linear-gradient-12" x1="-1.86" y1="14.82" x2="84.8" y2="-10.18" xlink:href="#linear-gradient"/><linearGradient id="linear-gradient-13" x1="-1.15" y1="17.29" x2="85.52" y2="-7.71" xlink:href="#linear-gradient"/><linearGradient id="linear-gradient-14" x1="294.69" y1="313.95" x2="381.35" y2="288.95" xlink:href="#linear-gradient"/><linearGradient id="linear-gradient-15" x1="0.13" y1="21.74" x2="86.8" y2="-3.26" xlink:href="#linear-gradient"/><linearGradient id="linear-gradient-16" x1="0.78" y1="23.98" x2="87.45" y2="-1.02" xlink:href="#linear-gradient"/><linearGradient id="linear-gradient-17" x1="296.98" y1="321.91" x2="383.65" y2="296.91" xlink:href="#linear-gradient"/><linearGradient id="linear-gradient-18" x1="297.26" y1="322.87" x2="383.93" y2="297.87" xlink:href="#linear-gradient"/><linearGradient id="linear-gradient-19" x1="298.08" y1="325.7" x2="384.74" y2="300.7" xlink:href="#linear-gradient"/><linearGradient id="linear-gradient-20" x1="3.53" y1="33.5" x2="90.19" y2="8.5" xlink:href="#linear-gradient"/></defs><title>logo</title><path class="cls-1" d="M333.94,315.82a.34.34,0,0,1,.23.08.28.28,0,0,1,.09.22h.55a.66.66,0,0,0-.11-.37.69.69,0,0,0-.3-.25,1.06,1.06,0,0,0-.44-.09,1.22,1.22,0,0,0-.45.08.72.72,0,0,0-.31.23.54.54,0,0,0-.11.33.66.66,0,0,0,.44.6l.35.14a1.07,1.07,0,0,1,.3.14.22.22,0,0,1,.09.19.19.19,0,0,1-.08.16.34.34,0,0,1-.21.06.45.45,0,0,1-.31-.09.35.35,0,0,1-.09-.27H333a.71.71,0,0,0,.11.4.75.75,0,0,0,.34.27,1.22,1.22,0,0,0,.5.1,1,1,0,0,0,.62-.17.55.55,0,0,0,.22-.47.65.65,0,0,0-.37-.59,2,2,0,0,0-.39-.16,1.17,1.17,0,0,1-.33-.15.19.19,0,0,1,0-.32A.38.38,0,0,1,333.94,315.82Z" transform="translate(-295.07 -294)"/><polygon class="cls-2" points="43.64 23.02 43.13 21.43 42.41 21.43 42.41 23.71 42.96 23.71 42.96 23.18 42.9 22.09 43.46 23.71 43.82 23.71 44.37 22.09 44.31 23.18 44.31 23.71 44.86 23.71 44.86 21.43 44.14 21.43 43.64 23.02"/><path class="cls-3" d="M343.33,315.43l-.83,2.27h.59l.13-.43H344l.13.43h.59l-.84-2.27Zm0,1.43.24-.79.25.79Z" transform="translate(-295.07 -294)"/><path class="cls-4" d="M348.9,316.51a.74.74,0,0,0,.1-.39.61.61,0,0,0-.23-.51,1,1,0,0,0-.63-.18h-.89v2.27h.55v-.81h.3l.4.81h.59v0l-.47-.92A.68.68,0,0,0,348.9,316.51Zm-.53-.11a.31.31,0,0,1-.24.08h-.35v-.63h.35a.31.31,0,0,1,.24.08.32.32,0,0,1,.08.23A.32.32,0,0,1,348.37,316.4Z" transform="translate(-295.07 -294)"/><polygon class="cls-5" points="56.44 21.86 57.11 21.86 57.11 23.71 57.66 23.71 57.66 21.86 58.34 21.86 58.34 21.43 56.44 21.43 56.44 21.86"/><path class="cls-6" d="M357.31,315.53a1.06,1.06,0,0,0-.46-.1h-.91v2.27h.55v-.77h.35a1,1,0,0,0,.65-.2.66.66,0,0,0,.24-.53.75.75,0,0,0-.11-.4A.73.73,0,0,0,357.31,315.53Zm-.22.9a.34.34,0,0,1-.24.08h-.36v-.66h.36a.3.3,0,0,1,.23.1.36.36,0,0,1,.09.25A.3.3,0,0,1,357.09,316.43Z" transform="translate(-295.07 -294)"/><polygon class="cls-7" points="66.7 22.34 65.89 22.34 65.89 21.43 65.35 21.43 65.35 23.71 65.89 23.71 65.89 22.76 66.7 22.76 66.7 23.71 67.25 23.71 67.25 21.43 66.7 21.43 66.7 22.34"/><path class="cls-8" d="M366.5,315.54a1,1,0,0,0-1,0,.89.89,0,0,0-.35.39,1.36,1.36,0,0,0-.12.59v.13a1.28,1.28,0,0,0,.13.57.91.91,0,0,0,.35.38,1,1,0,0,0,.52.13,1,1,0,0,0,.52-.14.91.91,0,0,0,.35-.39,1.34,1.34,0,0,0,.12-.59v-.1a1.3,1.3,0,0,0-.13-.58A.93.93,0,0,0,366.5,315.54Zm-.08,1.09a1,1,0,0,1-.11.51.36.36,0,0,1-.32.18.36.36,0,0,1-.33-.18,1,1,0,0,1-.11-.51v-.17c0-.41.16-.62.44-.62a.36.36,0,0,1,.32.18,1,1,0,0,1,.11.52Z" transform="translate(-295.07 -294)"/><polygon class="cls-9" points="75.94 22.85 75.13 21.43 74.58 21.43 74.58 23.71 75.13 23.71 75.13 22.29 75.94 23.71 76.48 23.71 76.48 21.43 75.94 21.43 75.94 22.85"/><polygon class="cls-10" points="79.22 23.71 80.79 23.71 80.79 23.29 79.77 23.29 79.77 22.74 80.63 22.74 80.63 22.34 79.77 22.34 79.77 21.86 80.79 21.86 80.79 21.43 79.22 21.43 79.22 23.71"/><polygon class="cls-11" points="0 0 0 0.96 0 1.41 0 22.35 0 22.41 0 23.76 34.14 23.76 34.16 22.35 1.41 22.35 1.41 1.43 85.14 1.39 85.14 22.35 85.13 23.76 86.56 23.76 86.56 22.41 86.56 22.35 86.56 1.41 86.56 0.96 86.56 0 0 0"/><polygon class="cls-12" points="9.38 16.5 9.38 9.56 11.94 9.56 11.94 7.97 4.81 7.97 4.81 9.56 7.32 9.56 7.32 16.5 9.38 16.5"/><polygon class="cls-13" points="19.94 16.5 19.94 7.97 17.89 7.97 17.89 11.36 14.86 11.36 14.86 7.97 12.81 7.97 12.81 16.5 14.86 16.5 14.86 12.94 17.89 12.94 17.89 16.5 19.94 16.5"/><path class="cls-14" d="M315.75,310.5h2.2l.49-1.59h2.82l.5,1.59H324L320.81,302h-1.93Zm4.1-6.14.92,3h-1.83Z" transform="translate(-295.07 -294)"/><polygon class="cls-15" points="34.59 13.28 31.57 7.97 29.52 7.97 29.52 16.5 31.57 16.5 31.57 11.19 34.6 16.5 36.64 16.5 36.64 7.97 34.59 7.97 34.59 13.28"/><polygon class="cls-16" points="37.94 7.97 37.94 16.5 40 16.5 40 12.94 43.03 12.94 43.03 16.5 45.07 16.5 45.07 7.97 43.03 7.97 43.03 11.36 40 11.36 40 7.97 37.94 7.97"/><path class="cls-17" d="M349.87,302.37a3.9,3.9,0,0,0-3.89,0,3.43,3.43,0,0,0-1.31,1.48,5,5,0,0,0-.46,2.21v.45a4.9,4.9,0,0,0,.49,2.16,3.43,3.43,0,0,0,1.31,1.44,3.7,3.7,0,0,0,1.93.5,3.81,3.81,0,0,0,.52,0l1.83,1.48,1.27-1.08-1.38-1.09a3.59,3.59,0,0,0,1.08-1.42,5,5,0,0,0,.39-2.07V306a4.91,4.91,0,0,0-.48-2.18A3.48,3.48,0,0,0,349.87,302.37Zm-.29,4.08a3.61,3.61,0,0,1-.42,1.9,1.34,1.34,0,0,1-1.21.66,1.36,1.36,0,0,1-1.24-.67,3.69,3.69,0,0,1-.42-1.93V306a3.63,3.63,0,0,1,.42-1.9,1.47,1.47,0,0,1,2.44,0,3.59,3.59,0,0,1,.42,1.93Z" transform="translate(-295.07 -294)"/><path class="cls-18" d="M357.35,307.54a1.64,1.64,0,0,1-.33,1.14,1.26,1.26,0,0,1-1,.35q-1.27,0-1.3-1.4V302h-2.07v5.63a2.88,2.88,0,0,0,.91,2.21,3.53,3.53,0,0,0,2.46.81,4.09,4.09,0,0,0,1.79-.36A2.62,2.62,0,0,0,359,309.2a3.21,3.21,0,0,0,.4-1.64V302h-2.06Z" transform="translate(-295.07 -294)"/><path class="cls-19" d="M363,302l-3.13,8.53h2.2l.49-1.59h2.82l.5,1.59h2.21L365,302Zm.05,5.35.91-3,.92,3Z" transform="translate(-295.07 -294)"/><polygon class="cls-20" points="78.74 13.28 75.72 7.97 73.67 7.97 73.67 16.5 75.72 16.5 75.72 11.19 78.75 16.5 80.79 16.5 80.79 7.97 78.74 7.97 78.74 13.28"/></svg>