<svg xmlns="http://www.w3.org/2000/svg" xmlns:xlink="http://www.w3.org/1999/xlink" version="1.1" x="0px" y="0px" viewBox="0 0 66 66" style="enable-background:new 0 0 66 66;" xml:space="preserve"><g><path fill="#4d4d4d" d="M56.4,10.8H9.6c-3.9,0-7,3.1-7,7v30.5c0,3.9,3.1,7,7,7h46.7c3.9,0,7-3.1,7-7V17.8C63.4,13.9,60.2,10.8,56.4,10.8z    M9.6,14.8h46.7c0.3,0,0.6,0,0.9,0.1L33,33.5L8.8,14.9C9.1,14.8,9.4,14.8,9.6,14.8z M59.4,48.2c0,1.7-1.3,3-3,3H9.6   c-1.7,0-3-1.3-3-3v-30L33,38.5l26.4-20.2V48.2z"/></g></svg>