<svg xmlns="http://www.w3.org/2000/svg" xmlns:xlink="http://www.w3.org/1999/xlink" version="1.1" x="0px" y="0px" viewBox="0 0 100 100" enable-background="new 0 0 100 100" xml:space="preserve"><g><path d="M20.1,87.869l-1.558-0.021C9.971,87.729,3,80.67,3,72.111v-6.402c0-8.56,6.971-15.617,15.542-15.737l1.558-0.021V87.869z    M17.025,53.162C10.859,54.019,6.074,59.35,6.074,65.709v6.402c0,6.359,4.785,11.69,10.951,12.546V53.162z"/></g><g><path d="M24.039,93.12c-3.867,0-7.013-3.146-7.013-7.013V51.716c0-3.867,3.146-7.013,7.013-7.013c3.866,0,7.013,3.146,7.013,7.013   v34.392C31.051,89.975,27.905,93.12,24.039,93.12z M24.039,47.777c-2.171,0-3.939,1.769-3.939,3.939v34.392   c0,2.17,1.768,3.938,3.939,3.938c2.17,0,3.938-1.769,3.938-3.938V51.716C27.977,49.545,26.209,47.777,24.039,47.777z"/></g><g><path d="M79.093,87.869V49.951l1.559,0.021c8.57,0.12,15.541,7.178,15.541,15.737v6.402c0,8.559-6.971,15.617-15.541,15.737   L79.093,87.869z M82.167,53.162v31.495c6.166-0.855,10.952-6.187,10.952-12.546v-6.402C93.119,59.35,88.333,54.019,82.167,53.162z"/></g><g><path d="M75.154,93.12c-3.866,0-7.013-3.146-7.013-7.013V51.716c0-3.867,3.146-7.013,7.013-7.013c3.867,0,7.013,3.146,7.013,7.013   v34.392C82.167,89.975,79.021,93.12,75.154,93.12z M75.154,47.777c-2.171,0-3.938,1.769-3.938,3.939v34.392   c0,2.17,1.768,3.938,3.938,3.938s3.938-1.769,3.938-3.938V51.716C79.093,49.545,77.325,47.777,75.154,47.777z"/></g><g><path d="M13.087,53.091h-3.074v-7.785c0-21.188,17.238-38.426,38.426-38.426h2.315c21.188,0,38.426,17.238,38.426,38.426v7.401   h-3.074v-7.401c0-19.492-15.859-35.352-35.352-35.352h-2.315c-19.492,0-35.352,15.86-35.352,35.352V53.091z"/></g></svg>