<svg xmlns="http://www.w3.org/2000/svg" xmlns:xlink="http://www.w3.org/1999/xlink" viewBox="0 0 18 18" version="1.1" x="0px" y="0px"><title>New Adjustment</title><desc>Created with Sketch.</desc><g stroke="none" stroke-width="1" fill="none" fill-rule="evenodd"><g transform="translate(-67.000000, -110.000000)" fill-rule="nonzero" fill="#ef3e43"><g transform="translate(67.000000, 110.000000)"><path d="M9,16 C12.8659932,16 16,12.8659932 16,9 C16,5.13400675 12.8659932,2 9,2 C5.13400675,2 2,5.13400675 2,9 C2,12.8659932 5.13400675,16 9,16 Z M9,18 C4.02943725,18 0,13.9705627 0,9 C0,4.02943725 4.02943725,0 9,0 C13.9705627,0 18,4.02943725 18,9 C18,13.9705627 13.9705627,18 9,18 Z M5,9 C5,9.55613518 5.4463856,10 5.99703014,10 L12.0029699,10 C12.5469637,10 13,9.55228475 13,9 C13,8.44386482 12.5536144,8 12.0029699,8 L5.99703014,8 C5.45303631,8 5,8.44771525 5,9 Z M9,5 C8.44386482,5 8,5.4463856 8,5.99703014 L8,12.0029699 C8,12.5469637 8.44771525,13 9,13 C9.55613518,13 10,12.5536144 10,12.0029699 L10,5.99703014 C10,5.45303631 9.55228475,5 9,5 Z"/></g></g></g></svg>