<svg xmlns="http://www.w3.org/2000/svg" xmlns:xlink="http://www.w3.org/1999/xlink" version="1.1" x="0px" y="0px" viewBox="0 0 64 64" enable-background="new 0 0 64 64" xml:space="preserve"><path d="M55,27h-4.7c-0.4-1.6-1-3-1.8-4.4l3.3-3.3c0.4-0.4,0.4-1,0-1.4l-5.7-5.7c-0.4-0.4-1-0.4-1.4,0l-3.3,3.3  c-1.4-0.8-2.9-1.4-4.4-1.8V9c0-0.5-0.5-1-1-1h-8c-0.5,0-1,0.5-1,1v4.7c-1.6,0.4-3,1.1-4.4,1.8l-3.3-3.3c-0.4-0.4-1-0.4-1.4,0  l-5.7,5.7c-0.4,0.4-0.4,1,0,1.4l3.3,3.3c0,0,0,0,0,0c-0.8,1.4-1.4,2.9-1.8,4.4H9c-0.5,0-1,0.5-1,1v8c0,0.5,0.5,1,1,1h4.7  c0.4,1.6,1.1,3,1.8,4.4l-3.3,3.3c-0.4,0.4-0.4,1,0,1.4l5.7,5.7c0.4,0.4,1,0.4,1.4,0l3.3-3.3c1.4,0.8,2.9,1.4,4.4,1.8V55  c0,0.5,0.5,1,1,1h8c0.5,0,1-0.5,1-1v-4.7c1.6-0.4,3-1,4.4-1.8l3.3,3.3c0.4,0.4,1,0.4,1.4,0l5.7-5.7c0.4-0.4,0.4-1,0-1.4l-3.3-3.3  c0.8-1.4,1.4-2.9,1.8-4.4H55c0.5,0,1-0.5,1-1v-8C56,27.5,55.5,27,55,27z M54,35h-3.2h-2c0,0,0,0.1,0,0.1c-0.1,0.6-0.3,1.3-0.5,1.8  c0,0,0,0.1,0,0.1c-0.3,1-0.7,2-1.2,3c-0.1,0.3-0.3,0.6-0.5,0.9c0,0.1-0.1,0.2-0.2,0.3c-0.1,0.2-0.3,0.4-0.4,0.6l1.4,1.4l2.3,2.3  l-4.2,4.3l-2.3-2.3l-1.4-1.4c-0.1,0.1-0.1,0.1-0.2,0.1c-0.5,0.3-1,0.7-1.5,0.9c-0.9,0.5-1.9,0.9-3,1.2c-0.3,0.1-0.6,0.2-0.9,0.2  c-0.1,0-0.2,0.1-0.3,0.1c-0.3,0.1-0.5,0.1-0.8,0.2v2V54h-6v-3.2v-2c0,0-0.1,0-0.1,0c-0.6-0.1-1.3-0.3-1.8-0.5c0,0-0.1,0-0.1,0  c-1-0.3-2-0.7-3-1.2c-0.3-0.1-0.6-0.3-0.9-0.5c-0.1,0-0.2-0.1-0.3-0.2c-0.2-0.1-0.4-0.3-0.6-0.4l-1.4,1.4l-2.3,2.3l-4.2-4.3l2.3-2.3  l1.4-1.4c-0.2-0.2-0.3-0.4-0.4-0.6c-0.1-0.1-0.1-0.2-0.2-0.3c-0.2-0.3-0.3-0.6-0.5-0.9c-0.5-0.9-0.9-1.9-1.2-3  c-0.1-0.3-0.2-0.6-0.2-0.9c0-0.1-0.1-0.2-0.1-0.3c-0.1-0.3-0.1-0.5-0.2-0.8h-2H10v-6h3.2h2h0c0-0.1,0-0.2,0.1-0.3  c0-0.2,0.1-0.5,0.1-0.7c0-0.2,0.1-0.3,0.1-0.5c0.1-0.2,0.1-0.3,0.2-0.5h0c0.3-1,0.7-2,1.2-3c0.1-0.2,0.2-0.4,0.4-0.6  c0.1-0.2,0.2-0.3,0.3-0.5c0,0,0,0,0,0c0.1-0.2,0.3-0.4,0.4-0.6l-1.4-1.4l-2.3-2.3l4.2-4.2l2.3,2.3l1.4,1.4c0.2-0.1,0.4-0.3,0.6-0.4  c0.1-0.1,0.3-0.2,0.4-0.3c0.2-0.2,0.5-0.3,0.7-0.4c0.9-0.5,1.9-0.9,3-1.2c0.7-0.2,1.3-0.4,2-0.5v-2V10h6v3.2v2  c0.7,0.1,1.3,0.3,2,0.5c1,0.3,2,0.7,3,1.2c0,0,0.1,0,0.1,0.1c0.5,0.3,1,0.6,1.5,0.9c0,0,0,0,0.1,0.1l1.4-1.4l2.3-2.3l4.2,4.2  l-2.3,2.3l-1.4,1.4c0,0,0,0.1,0.1,0.1c0.4,0.5,0.7,1.1,1,1.7c0.5,0.9,0.9,1.9,1.2,3c0,0,0,0,0,0.1c0.2,0.6,0.3,1.1,0.4,1.7  c0,0.1,0,0.1,0,0.2h0h2H54V35z"/><path d="M32,43c-6.1,0-11-4.9-11-11s4.9-11,11-11s11,4.9,11,11S38.1,43,32,43z M32,23c-5,0-9,4-9,9s4,9,9,9s9-4,9-9S37,23,32,23z"/></svg>