<svg xmlns="http://www.w3.org/2000/svg" xmlns:xlink="http://www.w3.org/1999/xlink" version="1.1" x="0px" y="0px" viewBox="0 0 24 24" style="enable-background:new 0 0 24 24;" xml:space="preserve"><g><polygon points="12,2.982 2.503,11.496 2.93,11.973 12,3.842 21.07,11.973 21.497,11.496  "/><path d="M12,5.543l-7.363,6.601v8.875h14.725l0-8.875L12,5.543z M14.241,20.378H9.759v-5.762c0-1.059,0.862-1.921,1.921-1.921h0.64   c1.059,0,1.921,0.862,1.921,1.921V20.378z M14.881,20.378v-5.762c0-1.412-1.149-2.561-2.561-2.561h-0.64   c-1.412,0-2.561,1.149-2.561,2.561v5.762H5.278v-7.949L12,6.403l6.722,6.027l0,7.949H14.881z"/></g></svg>