<svg xmlns:dc="http://purl.org/dc/elements/1.1/" xmlns:cc="http://creativecommons.org/ns#" xmlns:rdf="http://www.w3.org/1999/02/22-rdf-syntax-ns#" xmlns:svg="http://www.w3.org/2000/svg" xmlns="http://www.w3.org/2000/svg" xmlns:sodipodi="http://sodipodi.sourceforge.net/DTD/sodipodi-0.dtd" xmlns:inkscape="http://www.inkscape.org/namespaces/inkscape" version="1.1" x="0px" y="0px" viewBox="0 0 100 100"><g transform="translate(0,-952.36218)"><path style="text-indent:0;text-transform:none;direction:ltr;block-progression:tb;baseline-shift:baseline;color:#000000;enable-background:accumulate;" d="m 26.000001,966.36218 c -0.6539,0 -1.003349,0.5931 -1,1 l 0,19 -12.999999,0 c -0.654551,0.01 -0.99243,0.5253 -1,1 l 0,43.00002 c 0,4.4147 3.585299,8 7.999999,8 l 61.999998,0 c 4.414699,0 8,-3.5853 8,-8 l 0,-63.00002 c -5e-5,-0.5236 -0.476421,-0.9999 -1,-1 l -61.999998,0 z m 1,2 59.999998,0 0,62.00002 c 0,3.3413 -2.6587,6 -6,6 l -56.874998,0 c 1.72135,-1.4679 2.875,-3.5631 2.875,-6 l 0,-62.00002 z m 9,8 c -0.642829,0.029 -0.97681,0.5488 -1,1 l 0,14 c 5e-5,0.5236 0.47642,1 1,1 l 20,0 c 0.52358,0 0.99995,-0.4764 1,-1 l 0,-14 c -5e-5,-0.5236 -0.47642,-0.9999 -1,-1 l -20,0 z m 1,2 18,0 0,12 -18,0 0,-12 z m 29,0 c -0.55228,0 -1,0.4477 -1,1 0,0.5523 0.44772,1 1,1 l 12,0 c 0.55228,0 1,-0.4477 1,-1 0,-0.5523 -0.44772,-1 -1,-1 l -12,0 z m -53,10 12,0 0,42.00002 c 0,3.3413 -2.6587,6 -6,6 -3.3413,0 -6,-2.6587 -6,-6 l 0,-42.00002 z m 53,0 c -0.55228,0 -1,0.4477 -1,1 0,0.5523 0.44772,1 1,1 l 12,0 c 0.55228,0 1,-0.4477 1,-1 0,-0.5523 -0.44772,-1 -1,-1 l -12,0 z m -30,12.00002 c -0.55228,0 -1,0.4477 -1,1 0,0.5523 0.44772,1 1,1 l 42,0 c 0.55228,0 1,-0.4477 1,-1 0,-0.5523 -0.44772,-1 -1,-1 l -42,0 z m 0,11 c -0.55228,0 -1,0.4477 -1,1 0,0.5523 0.44772,1 1,1 l 42,0 c 0.55228,0 1,-0.4477 1,-1 0,-0.5523 -0.44772,-1 -1,-1 l -42,0 z m 0,11 c -0.55228,0 -1,0.4477 -1,1 0,0.5523 0.44772,1 1,1 l 42,0 c 0.55228,0 1,-0.4477 1,-1 0,-0.5523 -0.44772,-1 -1,-1 l -42,0 z" fill="#000000" fill-opacity="1" stroke="none" marker="none" visibility="visible" display="inline" overflow="visible"/></g></svg>