<svg xmlns:dc="http://purl.org/dc/elements/1.1/" xmlns:cc="http://creativecommons.org/ns#" xmlns:rdf="http://www.w3.org/1999/02/22-rdf-syntax-ns#" xmlns:svg="http://www.w3.org/2000/svg" xmlns="http://www.w3.org/2000/svg" xmlns:sodipodi="http://sodipodi.sourceforge.net/DTD/sodipodi-0.dtd" xmlns:inkscape="http://www.inkscape.org/namespaces/inkscape" version="1.1" x="0px" y="0px" viewBox="0 0 1110.3337 1110.3337" enable-background="new 0 0 2000 2000" xml:space="preserve"><path style="" d="M 555.21197,0 C 406.836,0 267.371,57.772 162.432,162.665 c -216.576,216.53 -216.576,568.89304 0,785.42204 104.893,104.93996 244.404,162.71396 392.77997,162.71396 148.39,-0.02 287.819,-57.799 392.689,-162.62196 C 1164.478,731.65104 1164.478,379.244 947.90097,162.62 843.00797,57.774 703.54297,0 555.21197,0 Z m 0,94.324 0.1,0 c 123.144,0 238.978,47.919 325.995,134.983 179.74303,179.838 179.74303,472.39704 0,652.18504 -87.064,87.017 -202.851,134.98296 -326.091,134.98296 C 432.072,1016.475 316.193,968.50704 229.127,881.39604 49.292,701.65504 49.386,409.143 229.127,229.353 316.193,142.288 431.978,94.324 555.21597,94.324 Z m -0.1,300.233 c -12.251,0 -24.505,4.423 -33.348,13.266 L 293.492,636.19104 c -18.441,18.441 -18.441,48.294 0,66.687 18.441,18.441 48.251,18.441 66.692,0 l 194.92397,-194.975 195.027,194.975 c 9.195,9.198 21.27,13.821 33.343,13.821 12.075,0 24.148,-4.576 33.346,-13.821 18.441,-18.393 18.441,-48.246 0,-66.687 L 588.45597,407.823 c -8.843,-8.843 -21.093,-13.266 -33.344,-13.266 z" fill="#000000"/></svg>