<svg xmlns="http://www.w3.org/2000/svg" xmlns:xlink="http://www.w3.org/1999/xlink" version="1.1" x="0px" y="0px" viewBox="0 0 512 640" enable-background="new 0 0 512 512" xml:space="preserve"><g><path d="M469,124.9h-90.1v-24.6h-16.4V67.5c0-13.6-11-24.6-24.6-24.6H174.1c-13.6,0-24.6,11-24.6,24.6v32.8h-16.4v24.6H43   c-22.6,0-41,18.4-41,41v262.2c0,22.6,18.4,41,41,41H469c22.6,0,41-18.4,41-41V165.9C510,143.3,491.6,124.9,469,124.9z M362.5,124.9   h-16.4v-8.2h16.4V124.9z M165.9,67.5c0-4.5,3.7-8.2,8.2-8.2h163.9c4.5,0,8.2,3.7,8.2,8.2v32.8h-16.4v24.6H182.3v-24.6h-16.4V67.5z    M149.5,116.7h16.4v8.2h-16.4V116.7z M493.6,428.1c0,13.6-11,24.6-24.6,24.6H43c-13.6,0-24.6-11-24.6-24.6V287.9   c10.4,10.7,24.9,17.3,41,17.3h163.9v49.2h65.5v-49.2h163.9c16,0,30.5-6.6,41-17.3V428.1z M239.6,305.2h32.8v32.8h-32.8V305.2z    M452.6,288.8H288.8h-65.5H59.4c-22.6,0-41-18.4-41-41v-81.9c0-13.6,11-24.6,24.6-24.6h90.1h49.2h147.5h49.2H469   c13.6,0,24.6,11,24.6,24.6v81.9C493.6,270.4,475.2,288.8,452.6,288.8z"/><rect x="247.8" y="206.8" width="16.4" height="16.4"/><rect x="280.6" y="206.8" width="16.4" height="16.4"/><rect x="215" y="206.8" width="16.4" height="16.4"/></g></svg>