<svg xmlns="http://www.w3.org/2000/svg" xmlns:xlink="http://www.w3.org/1999/xlink" version="1.1" x="0px" y="0px" viewBox="10 90 100 100"  style="enable-background:new 0 0 100 100;" xml:space="preserve"><path d="M88,61V49c0-21-17-38-38-38S12,28,12,49v12c-0.6,1.5-1,3.2-1,5v6c0,6.1,4.2,11.2,9.9,12.6c1.3,2.6,4,4.4,7.1,4.4  c4.4,0,8-3.6,8-8V57c0-4.4-3.6-8-8-8c-3.1,0-5.8,1.8-7.1,4.4c-1,0.3-2,0.6-2.9,1.1V49c0-17.6,14.4-32,32-32s32,14.4,32,32v5.5  c-0.9-0.5-1.9-0.8-2.9-1.1c-1.3-2.6-4-4.4-7.1-4.4c-4.4,0-8,3.6-8,8v24c0,4.4,3.6,8,8,8c3.1,0,5.8-1.8,7.1-4.4  C84.8,83.2,89,78.1,89,72v-6C89,64.2,88.6,62.5,88,61z M26,57c0-1.1,0.9-2,2-2s2,0.9,2,2v24c0,1.1-0.9,2-2,2s-2-0.9-2-2V57z   M20,60.3v17.5c-1.8-1.3-3-3.4-3-5.7v-6C17,63.6,18.2,61.5,20,60.3z M74,81c0,1.1-0.9,2-2,2s-2-0.9-2-2V57c0-1.1,0.9-2,2-2  s2,0.9,2,2V81z M83,72c0,2.4-1.2,4.5-3,5.7V60.3c1.8,1.3,3,3.4,3,5.7V72z"/></svg>